<mxfile host="app.diagrams.net" agent="Mozilla/5.0 (Windows NT 10.0; Win64; x64) AppleWebKit/537.36 (KHTML, like Gecko) Chrome/131.0.0.0 Safari/537.36" version="24.8.7">
  <diagram name="1 oldal" id="22mFb-xQjrHz_Z3Vstf_">
    <mxGraphModel dx="1195" dy="622" grid="0" gridSize="10" guides="1" tooltips="1" connect="1" arrows="1" fold="1" page="0" pageScale="1" pageWidth="1169" pageHeight="827" math="0" shadow="0">
      <root>
        <mxCell id="0" />
        <mxCell id="1" parent="0" />
        <mxCell id="DkZl2Jph-_9-qNEtRbFi-1" value="&lt;font style=&quot;font-size: 14px;&quot;&gt;Vehicle model&lt;/font&gt;" style="rounded=0;whiteSpace=wrap;html=1;" vertex="1" parent="1">
          <mxGeometry x="200" y="120" width="160" height="80" as="geometry" />
        </mxCell>
        <mxCell id="DkZl2Jph-_9-qNEtRbFi-2" value="&lt;font style=&quot;font-size: 14px;&quot;&gt;Sensor model&lt;/font&gt;" style="rounded=0;whiteSpace=wrap;html=1;" vertex="1" parent="1">
          <mxGeometry x="550" y="120" width="160" height="80" as="geometry" />
        </mxCell>
        <mxCell id="DkZl2Jph-_9-qNEtRbFi-4" value="&lt;font style=&quot;font-size: 14px;&quot;&gt;sampling&lt;/font&gt;" style="rounded=0;whiteSpace=wrap;html=1;" vertex="1" parent="1">
          <mxGeometry x="440" y="137.5" width="70" height="45" as="geometry" />
        </mxCell>
        <mxCell id="DkZl2Jph-_9-qNEtRbFi-6" value="&lt;font style=&quot;font-size: 14px;&quot;&gt;State Estimator&lt;/font&gt;" style="rounded=0;whiteSpace=wrap;html=1;" vertex="1" parent="1">
          <mxGeometry x="800" y="120" width="160" height="240" as="geometry" />
        </mxCell>
        <mxCell id="DkZl2Jph-_9-qNEtRbFi-7" value="&lt;font style=&quot;font-size: 14px;&quot;&gt;Result&lt;/font&gt;" style="rounded=0;whiteSpace=wrap;html=1;" vertex="1" parent="1">
          <mxGeometry x="1049" y="40" width="120" height="160" as="geometry" />
        </mxCell>
        <mxCell id="DkZl2Jph-_9-qNEtRbFi-8" value="&lt;font style=&quot;font-size: 14px;&quot;&gt;Control signals&lt;/font&gt;" style="text;html=1;align=center;verticalAlign=middle;resizable=0;points=[];autosize=1;strokeColor=none;fillColor=none;" vertex="1" parent="1">
          <mxGeometry y="124" width="120" height="30" as="geometry" />
        </mxCell>
        <mxCell id="DkZl2Jph-_9-qNEtRbFi-9" value="&lt;font style=&quot;font-size: 14px;&quot;&gt;Velocity&lt;/font&gt;" style="text;html=1;align=center;verticalAlign=middle;resizable=0;points=[];autosize=1;strokeColor=none;fillColor=none;" vertex="1" parent="1">
          <mxGeometry x="25" y="320" width="70" height="30" as="geometry" />
        </mxCell>
        <mxCell id="DkZl2Jph-_9-qNEtRbFi-11" value="" style="endArrow=classic;html=1;rounded=0;exitX=0.957;exitY=0.522;exitDx=0;exitDy=0;exitPerimeter=0;entryX=-0.009;entryY=0.91;entryDx=0;entryDy=0;entryPerimeter=0;" edge="1" parent="1" source="DkZl2Jph-_9-qNEtRbFi-9" target="DkZl2Jph-_9-qNEtRbFi-6">
          <mxGeometry width="50" height="50" relative="1" as="geometry">
            <mxPoint x="360" y="240" as="sourcePoint" />
            <mxPoint x="410" y="190" as="targetPoint" />
          </mxGeometry>
        </mxCell>
        <mxCell id="DkZl2Jph-_9-qNEtRbFi-12" value="" style="endArrow=classic;html=1;rounded=0;entryX=0;entryY=0.25;entryDx=0;entryDy=0;exitX=1.009;exitY=0.556;exitDx=0;exitDy=0;exitPerimeter=0;" edge="1" parent="1" source="DkZl2Jph-_9-qNEtRbFi-8" target="DkZl2Jph-_9-qNEtRbFi-1">
          <mxGeometry width="50" height="50" relative="1" as="geometry">
            <mxPoint x="120" y="140" as="sourcePoint" />
            <mxPoint x="170" y="140" as="targetPoint" />
          </mxGeometry>
        </mxCell>
        <mxCell id="DkZl2Jph-_9-qNEtRbFi-13" value="" style="endArrow=classic;html=1;rounded=0;entryX=0;entryY=0.75;entryDx=0;entryDy=0;exitX=0.972;exitY=0.524;exitDx=0;exitDy=0;exitPerimeter=0;" edge="1" parent="1" source="DkZl2Jph-_9-qNEtRbFi-9" target="DkZl2Jph-_9-qNEtRbFi-1">
          <mxGeometry width="50" height="50" relative="1" as="geometry">
            <mxPoint x="360" y="260" as="sourcePoint" />
            <mxPoint x="410" y="210" as="targetPoint" />
            <Array as="points">
              <mxPoint x="160" y="336" />
              <mxPoint x="160" y="180" />
            </Array>
          </mxGeometry>
        </mxCell>
        <mxCell id="DkZl2Jph-_9-qNEtRbFi-14" value="" style="endArrow=classic;html=1;rounded=0;exitX=1;exitY=0.5;exitDx=0;exitDy=0;entryX=0;entryY=0.5;entryDx=0;entryDy=0;" edge="1" parent="1" source="DkZl2Jph-_9-qNEtRbFi-1" target="DkZl2Jph-_9-qNEtRbFi-4">
          <mxGeometry width="50" height="50" relative="1" as="geometry">
            <mxPoint x="430" y="230" as="sourcePoint" />
            <mxPoint x="480" y="180" as="targetPoint" />
          </mxGeometry>
        </mxCell>
        <mxCell id="DkZl2Jph-_9-qNEtRbFi-16" value="vehicle_state" style="edgeLabel;html=1;align=center;verticalAlign=middle;resizable=0;points=[];" vertex="1" connectable="0" parent="DkZl2Jph-_9-qNEtRbFi-14">
          <mxGeometry x="-0.2364" y="-3" relative="1" as="geometry">
            <mxPoint x="9" y="7" as="offset" />
          </mxGeometry>
        </mxCell>
        <mxCell id="DkZl2Jph-_9-qNEtRbFi-15" value="" style="endArrow=classic;html=1;rounded=0;exitX=1;exitY=0.5;exitDx=0;exitDy=0;entryX=0;entryY=0.5;entryDx=0;entryDy=0;" edge="1" parent="1" source="DkZl2Jph-_9-qNEtRbFi-4" target="DkZl2Jph-_9-qNEtRbFi-2">
          <mxGeometry width="50" height="50" relative="1" as="geometry">
            <mxPoint x="410" y="170" as="sourcePoint" />
            <mxPoint x="450" y="170" as="targetPoint" />
          </mxGeometry>
        </mxCell>
        <mxCell id="DkZl2Jph-_9-qNEtRbFi-18" value="" style="endArrow=classic;html=1;rounded=0;exitX=1;exitY=0.25;exitDx=0;exitDy=0;entryX=-0.007;entryY=0.082;entryDx=0;entryDy=0;entryPerimeter=0;" edge="1" parent="1" source="DkZl2Jph-_9-qNEtRbFi-2" target="DkZl2Jph-_9-qNEtRbFi-6">
          <mxGeometry width="50" height="50" relative="1" as="geometry">
            <mxPoint x="660" y="220" as="sourcePoint" />
            <mxPoint x="820" y="60" as="targetPoint" />
          </mxGeometry>
        </mxCell>
        <mxCell id="DkZl2Jph-_9-qNEtRbFi-21" value="lateral_error" style="edgeLabel;html=1;align=center;verticalAlign=middle;resizable=0;points=[];" vertex="1" connectable="0" parent="DkZl2Jph-_9-qNEtRbFi-18">
          <mxGeometry x="-0.0438" y="-1" relative="1" as="geometry">
            <mxPoint y="9" as="offset" />
          </mxGeometry>
        </mxCell>
        <mxCell id="DkZl2Jph-_9-qNEtRbFi-22" value="angular_error" style="edgeLabel;html=1;align=center;verticalAlign=middle;resizable=0;points=[];" vertex="1" connectable="0" parent="DkZl2Jph-_9-qNEtRbFi-18">
          <mxGeometry x="0.0121" y="-6" relative="1" as="geometry">
            <mxPoint y="44" as="offset" />
          </mxGeometry>
        </mxCell>
        <mxCell id="DkZl2Jph-_9-qNEtRbFi-19" value="" style="endArrow=classic;html=1;rounded=0;entryX=0;entryY=0.25;entryDx=0;entryDy=0;" edge="1" parent="1" target="DkZl2Jph-_9-qNEtRbFi-6">
          <mxGeometry width="50" height="50" relative="1" as="geometry">
            <mxPoint x="710" y="180" as="sourcePoint" />
            <mxPoint x="770" y="182.5" as="targetPoint" />
          </mxGeometry>
        </mxCell>
        <mxCell id="DkZl2Jph-_9-qNEtRbFi-20" value="" style="endArrow=classic;html=1;rounded=0;exitX=0.488;exitY=1.101;exitDx=0;exitDy=0;exitPerimeter=0;entryX=0.004;entryY=0.66;entryDx=0;entryDy=0;entryPerimeter=0;" edge="1" parent="1" source="DkZl2Jph-_9-qNEtRbFi-8" target="DkZl2Jph-_9-qNEtRbFi-6">
          <mxGeometry width="50" height="50" relative="1" as="geometry">
            <mxPoint x="350" y="260" as="sourcePoint" />
            <mxPoint x="400" y="210" as="targetPoint" />
            <Array as="points">
              <mxPoint x="60" y="280" />
            </Array>
          </mxGeometry>
        </mxCell>
        <mxCell id="DkZl2Jph-_9-qNEtRbFi-23" value="" style="endArrow=classic;html=1;rounded=0;entryX=0;entryY=0.75;entryDx=0;entryDy=0;exitX=1.017;exitY=0.166;exitDx=0;exitDy=0;exitPerimeter=0;" edge="1" parent="1" source="DkZl2Jph-_9-qNEtRbFi-6" target="DkZl2Jph-_9-qNEtRbFi-7">
          <mxGeometry width="50" height="50" relative="1" as="geometry">
            <mxPoint x="730" y="220" as="sourcePoint" />
            <mxPoint x="780" y="170" as="targetPoint" />
          </mxGeometry>
        </mxCell>
        <mxCell id="DkZl2Jph-_9-qNEtRbFi-24" value="estimated state" style="edgeLabel;html=1;align=center;verticalAlign=middle;resizable=0;points=[];" vertex="1" connectable="0" parent="DkZl2Jph-_9-qNEtRbFi-23">
          <mxGeometry x="-0.1431" y="-1" relative="1" as="geometry">
            <mxPoint x="4" y="9" as="offset" />
          </mxGeometry>
        </mxCell>
        <mxCell id="DkZl2Jph-_9-qNEtRbFi-25" value="" style="endArrow=classic;html=1;rounded=0;entryX=0;entryY=0.25;entryDx=0;entryDy=0;" edge="1" parent="1" target="DkZl2Jph-_9-qNEtRbFi-7">
          <mxGeometry width="50" height="50" relative="1" as="geometry">
            <mxPoint x="400" y="160" as="sourcePoint" />
            <mxPoint x="860" y="100" as="targetPoint" />
            <Array as="points">
              <mxPoint x="400" y="80" />
            </Array>
          </mxGeometry>
        </mxCell>
        <mxCell id="DkZl2Jph-_9-qNEtRbFi-26" value="vehicle_state" style="edgeLabel;html=1;align=center;verticalAlign=middle;resizable=0;points=[];" vertex="1" connectable="0" parent="1">
          <mxGeometry x="999.9966666666668" y="90" as="geometry" />
        </mxCell>
      </root>
    </mxGraphModel>
  </diagram>
</mxfile>
